<?xml version="1.0" encoding="utf-8"?>
<!-- Generator: Adobe Illustrator 16.0.0, SVG Export Plug-In . SVG Version: 6.00 Build 0)  -->
<!DOCTYPE svg PUBLIC "-//W3C//DTD SVG 1.1//EN" "http://www.w3.org/Graphics/SVG/1.1/DTD/svg11.dtd">
<svg version="1.1" id="Layer_1" xmlns="http://www.w3.org/2000/svg" xmlns:xlink="http://www.w3.org/1999/xlink" x="0px" y="0px"
	 width="216px" height="216px" viewBox="0 0 216 216" enable-background="new 0 0 216 216" xml:space="preserve">
<g id="Layer_3">
</g>
<g id="Layer_4" display="none">
</g>
<g id="Layer_5" opacity="0.8">
	<path d="M171.768,163.527c0.434-1.17,0.826-2.362,1.205-3.565c1.653-5.744,2.789-11.669,3.354-17.787
		c0.724-7.875,0.504-15.843-1.199-23.596c-0.839-3.817-2.986-7.091-4.441-10.574c-1.076-1.339-2.041-2.743-2.795-4.273
		c-2.785-5.661-1.68-11.259-1.558-17.24c-0.835-4.171-1.854-8.331-4.005-11.452c-2.072-2.338-4.725-4.019-8.029-4.181
		c-2.247-0.633-4.695-0.677-7.35-0.215c-6.563,1.146-11.063,5.067-13.43,10.15c-0.699,1.237-0.985,2.609-0.713,4.216
		c0.023,0.143,0.051,0.283,0.076,0.424c0.055,0.521,0.152,1.036,0.303,1.544c0.86,4.157,1.863,7.943-0.479,12.096
		c-0.007,0.012-0.012,0.024-0.018,0.036c-0.021,0.014-0.039,0.033-0.063,0.046c0.002,0.002,0.003,0.004,0.004,0.006
		c0.009,0.01,0.017,0.02,0.021,0.03c-0.17,0.36-0.168,0.704-0.073,1.012c0.055,0.235,0.163,0.469,0.36,0.687
		c0.293,0.324,0.619,0.646,0.959,0.97c0.383,0.113,0.752,0.285,1.103,0.503c0.203,0.037,0.401,0.092,0.599,0.17
		c0.286,0.115,0.568,0.231,0.853,0.35c0.01,0.075,0.019,0.155,0.026,0.232c0.352,0.196,0.688,0.423,0.996,0.704
		c1.32,1.205,2.443,2.589,3.396,4.087c-0.709,0.328-1.416,0.665-2.12,1.007c-2.871,1.395-6.464,2.781-9.344,4.801
		c-5.438,1.938-10.959,3.971-16.049,6.52c-2.418-2.668-4.984-5.186-7.726-7.459c-5.023-4.172-12.415-9.062-19.232-6.768
		c-3.254,1.096-5.344,4.016-7.092,7.148c-1.382,1.923-2.472,4.101-3.41,6.092c-0.16,0.339-0.312,0.68-0.468,1.02
		c-1.396-0.229-2.787-0.359-4.149-0.084c-1.006,0.205-2.196,0.649-2.677,1.668c-1.06,2.241-1.24,3.866-3.685,5.313
		c-2.391,1.411-4.618,5.031-3.708,7.895c0.785,2.465,2.575,4.199,4.33,5.987c-1.185,2.269-2.314,4.57-3.388,6.935
		c-1.665,3.662-3.156,7.398-4.791,11.074c-0.531,1.193-1.157,2.102-1.867,2.795c-0.581,0.68-1.167,1.209-1.86,1.617
		c-3.402,3.256-8.546,1.604-12.332-0.88c-2.062-1.354-4.911-5.021-7.388-5.094c-1.903-0.056-3.532,0.208-5.015,0.741
		c0.395,0.767,0.838,1.511,1.304,2.242c5.242,4.469,9.553,10.383,14.653,14.982c3.268,2.947,6.55,5.734,10.032,8.225
		c0.668-0.254,1.268-0.563,1.518-1.01c1.101-1.951,1.924-4.009,2.843-6.049c1.477-3.279,3.678-6.193,6.272-8.684
		c3.415-3.273,7.217-6.123,11.231-8.637c3.758-3.242,7.152-6.479,9.556-10.873c1.896-3.472,3.146-7.063,4.868-10.515
		c8.242,9.526,11.175,23.291,17.761,33.938c3.397,5.492,7.362,12.367,13.396,15.244c1.592,0.758,3.301,1.144,5.063,1.334
		c7.313,2.662,15.295,3.655,22.694,0.728C161.275,184.736,167.773,174.371,171.768,163.527z M128.691,138.79
		c-0.313,0.776-0.604,1.562-0.883,2.347c-0.522-0.927-1.061-1.845-1.601-2.756c1.065-0.346,2.123-0.727,3.153-1.17
		C129.141,137.736,128.907,138.259,128.691,138.79z"/>
</g>
<g id="Layer_1_1_" opacity="0.8">
	<circle fill="none" stroke="#000000" stroke-width="11.31" stroke-miterlimit="10" cx="108.119" cy="108.224" r="102.223"/>
</g>
</svg>
