<?xml version="1.0" encoding="utf-8"?>
<!-- Generator: Adobe Illustrator 16.0.0, SVG Export Plug-In . SVG Version: 6.00 Build 0)  -->
<!DOCTYPE svg PUBLIC "-//W3C//DTD SVG 1.1//EN" "http://www.w3.org/Graphics/SVG/1.1/DTD/svg11.dtd">
<svg version="1.1" xmlns="http://www.w3.org/2000/svg" xmlns:xlink="http://www.w3.org/1999/xlink" x="0px" y="0px" width="216px"
	 height="216px" viewBox="0 0 216 216" enable-background="new 0 0 216 216" xml:space="preserve">
<g id="Layer_3">
	<path fill="#231F20" d="M186.818,154.223c2.204-3.233,4.038-6.668,5.584-10.238c4.672-13.097,6.286-27.582,6.354-40.944
		c0.003-0.626,0.127-1.166,0.336-1.628c-0.764-1.616-1.368-3.331-1.646-5.311C197.363,95.505,196.593,94.93,196,95
		c-0.965,0.115-1.737-0.604-2.797-0.657c-1.016-0.878-2.205-1.664-3.471-1.873c-0.378-0.063-0.711,0.007-0.989,0.154
		c-2.286,0.486-4.61,0.751-6.892,1.262c-0.351,0.079-0.706,0.182-1.064,0.292c-4.225-6.029-9.48-11.046-14.799-16.292
		c-2.573-2.537-3.539-4.496-7.006-5.833c-1.955-0.755-3.559-0.773-5.547-0.25c-1.141,0.3-1.652,1.734-2.608,2.318
		c-0.035,0.021-0.061,0.047-0.093,0.07c-0.07,0.005-0.135,0.013-0.19,0.023c-0.596,0.119-1.183,0.435-1.689,0.756
		c-0.508,0.321-0.962,0.753-1.372,1.188c-0.151,0.17-0.303,0.338-0.456,0.506c-0.416,0.46-0.571,0.235-0.103,0.456
		c-0.461-0.217-0.905-0.191-1.278-0.026c-0.683-0.013-1.339,0.204-1.896,0.809c-1.065,1.155-1.045,3.007-0.33,4.462
		c-1.39-0.009-2.779-0.036-4.169-0.128c-3.263-0.218-6.321-1.494-9.561-1.889c0.048-0.445,0.093-0.895,0.144-1.349
		c0.197-1.78,0.427-4.711-1.636-4.895c0.005-0.022,0.008-0.044,0.013-0.066c1.047-4.525,1.606-8.498,0.929-13.115
		c-0.54-3.679-1.885-7.352-3.906-10.464c-0.79-1.217-1.629-1.781-2.788-2.6c-1.559-1.101-3.496-2.869-5.354-3.583
		c-6.806-2.614-14.688-1.681-21.136,1.404c-2.584,1.236-7.365,3.897-8.546,6.731c-1.457,3.496-2.136,8.048-2.324,11.836
		c-0.006,0.128,0.002,0.246,0.021,0.356c-0.027,0.515-0.014,1.024,0.076,1.519c-0.059,1.816-0.01,3.576,0.337,5.371
		c0.073,0.378,0.161,0.75,0.252,1.12c-0.765-0.019-1.536,0.461-1.52,1.447c0.029,1.846-0.205,3.653,0.193,5.475
		c0.092,0.423,0.234,0.837,0.403,1.243c-0.896-0.024-1.793-0.014-2.7,0.033c-1.756,0.091-3.561,0.551-5.32,0.308
		c0.381-0.8,0.779-1.593,1.22-2.364c0.458-0.802,0.067-1.999-0.896-2.203c-0.008-0.002-0.016-0.001-0.024-0.003
		c-0.285-0.149-0.629-0.211-1.024-0.122c-0.022,0.005-0.043,0.014-0.065,0.02c-0.107,0-0.217-0.007-0.322,0
		c-0.053-0.13-0.094-0.26-0.165-0.39c-0.679-1.248-2.02-1.939-3.393-2.061c-0.047-0.477-0.178-0.956-0.423-1.426
		c-0.803-1.538-2.46-1.789-3.973-1.438c-0.078-0.503-0.24-1-0.521-1.482c-1.321-2.255-5.896-2.945-8.153-2.207
		C48.189,71.006,42.79,82.409,32.351,86.679c-0.193,0.079-0.351,0.188-0.485,0.312c-3.883-0.36-7.845-0.3-11.478-0.244
		c-0.394-0.165-0.796-0.303-1.203-0.427c-5.556,19.337-3.198,41.712,7.181,59.12c8.012,2.175,16.107,2.255,24.381,2.746
		c5.252,9.441,3.09,20.413,1.374,31.27c1.121,1.134,2.913,2.133,3.885,2.749c2.947,1.868,6.012,3.569,9.175,5.047
		c6.732,3.146,13.761,5.551,20.861,7.731c11.144,3.423,21.72,4.939,33.309,2.983c9.041-1.526,17.708-4.15,26.12-7.641
		c-0.805-5.254-1.652-10.5-1.246-15.921c0.037-0.495,0.09-0.987,0.149-1.478c0.378-2.009,0.861-4.015,1.438-6.02
		c1.109-3.854,2.432-8.059,3.21-12.3c0.257-0.637,0.538-1.26,0.858-1.858c0.717-0.116,1.432-0.23,2.144-0.344
		c0.354-0.057,0.696-0.142,1.032-0.238c5.475,0.232,10.968,0.321,16.386,0.684c4.891,0.327,9.753,0.941,14.641,1.299
		C184.996,154.215,185.907,154.23,186.818,154.223z M89.441,97.982c-1.747,1.381-3.457,2.72-5.385,3.848
		c-0.854,0.499-1.715,0.753-2.505,1.242c-7.054-0.108-14.104-0.242-21.142-0.428c-1.046-0.703-2.384-0.819-3.602-0.425
		c-0.438,0.016-0.86,0.206-1.148,0.557c-1.345,0.778-2.442,1.917-3.386,3.149c-0.535,0.7-0.787,1.646-0.991,2.484
		c-0.104,0.428-0.142,2.244-0.539,2.42c-0.322,0.144-0.533,0.348-0.654,0.58c-4.479,0.114-8.956,1.258-13.048,3.072
		c-3.132-0.609-6.417-0.639-9.45-0.021c2.017-2.972,3.784-6.116,6.47-8.508c1.944-1.73,4.26-3.157,6.276-4.823
		c2.812-2.324,4.872-4.994,8.4-6.382c0.54-0.212,1.094-0.393,1.655-0.557c0.254,0.088,0.55,0.103,0.882,0.004
		c4.523-1.348,11.258,1.147,15.705-0.884c0.283,0.031,0.59-0.033,0.903-0.267c0.005-0.004,0.011-0.008,0.017-0.012
		c0.266-0.094,0.474-0.255,0.625-0.46c2.517-1.862,5.054-3.702,7.477-5.684c1.813-0.235,3.632-0.433,5.434-0.753
		c1.351-0.241,2.646-0.556,3.914-0.687c0.612,0.05,1.216,0.13,1.83,0.241c0.248,4.171,1.642,7.898,3.219,11.583
		C90.077,97.495,89.758,97.731,89.441,97.982z M180.365,125.438c-2.081-0.153-4.202-0.134-6.295-0.198
		c-0.948-0.238-1.89-0.5-2.827-0.777c-0.4-0.312-0.818-0.599-1.293-0.815c-0.738-0.336-1.409-0.368-2.083-0.32
		c-0.94-0.354-1.875-0.738-2.802-1.173c-0.503-0.471-1.078-0.886-1.738-1.239c-1.514-0.812-3.02-2.01-4.694-2.51
		c0.109-2.569-0.198-5.146-1.822-7.215c-1.984-2.528-5.397-4.476-8.625-3.302c-0.108,0.04-0.207,0.088-0.297,0.143
		c-2.572-1.043-5.312-1.133-8.389-1.447c-3.993-0.407-8.969-1.478-13.021-0.738c-0.112-0.107-0.223-0.216-0.335-0.323
		c-1.47-1.405-2.813-3.023-4.267-4.5c2.57-4.152,3.063-9.231,4.841-13.727c0.17-0.132,0.33-0.268,0.48-0.407
		c0.019-0.005,0.038-0.006,0.057-0.012c0.551-0.168,0.93-0.495,1.191-0.911c5.407,1.231,10.668,2.024,15.85,3.555
		c1.054,3.129,1.39,6.454,4.89,7.842c2.099,0.833,5.576-0.322,7.648-0.53c1.576-0.158,3.21-0.166,4.842-0.028
		c1.549,1.378,3.222,2.436,4.538,4.196c1.531,2.047,3.129,4.042,4.658,6.089c2.72,3.641,5.991,7.588,7.233,12.012
		c0.241,0.858,2.473,5.339,3.747,6.521C181.378,125.543,180.889,125.477,180.365,125.438z"/>
</g>
<g id="Layer_1">
	<circle fill="none" stroke="#231F20" stroke-width="11.31" stroke-miterlimit="10" cx="108.119" cy="108.224" r="102.223"/>
</g>
</svg>
