<?xml version="1.0" encoding="utf-8"?>
<!-- Generator: Adobe Illustrator 16.0.0, SVG Export Plug-In . SVG Version: 6.00 Build 0)  -->
<!DOCTYPE svg PUBLIC "-//W3C//DTD SVG 1.1//EN" "http://www.w3.org/Graphics/SVG/1.1/DTD/svg11.dtd">
<svg version="1.1" id="Layer_1" xmlns="http://www.w3.org/2000/svg" xmlns:xlink="http://www.w3.org/1999/xlink" x="0px" y="0px"
	 width="216px" height="216px" viewBox="0 0 216 216" enable-background="new 0 0 216 216" xml:space="preserve">
<g id="Layer_6" display="none">
</g>
<g id="Layer_8">
	<path d="M164.411,168.335c-1.022-3.5-3.499-10.688-8.57-9.124c-2.179,0.674-3.518,1.896-4.89,3.704
		c-2.455,3.231-6.899,4.886-10.477,6.603c-1.269,0.607-2.556,1.17-3.854,1.7c-3.604,0.181-7.058,1.005-10.429,2.151
		c2.309-7.465,3.789-15.484,4.16-23.21c0.426-8.888-1.283-17.419-2.726-26.138c-2.573-15.57-1.272-31.214-14.495-42.348
		c-0.395-0.332-0.699-0.701-0.936-1.09c-1.6-1.304-2.432-2.636-3.108-4.727c-0.362-1.118-0.228-2.058,0.202-2.799
		c0.213-0.532,0.543-1.012,1.027-1.367c0.709-0.518,1.393-1.064,2.063-1.626c1.602-1.746,3.18-3.523,4.081-5.759
		c1.91-4.725-1.052-10.989-4.981-13.734c-8.352-5.834-20.894-2.354-24.229,7.427c-0.173,0.506-0.173,0.958-0.068,1.357
		c-0.281,0.072-0.564,0.129-0.855,0.141c-2.141,0.088-3.358,2.677-1.768,4.268l0.135,0.135c-1.467,1.72-2.712,3.639-3.748,5.631
		c-0.48,0.458-0.786,1.097-0.786,1.8c0,0.721,0.323,1.373,0.825,1.832c0.26,0.521,0.694,0.974,1.344,1.245
		c2.123,0.887,4.404,1.456,6.723,1.735c0.92,1.822,1.807,3.658,2.749,5.457c-3.2,4.443-4.346,10.3-5.107,15.654
		c-0.228,1.604-0.403,3.215-0.548,4.829c-0.407,1.573-0.728,3.258-0.68,4.817c-0.652,2.631-0.863,5.364-0.934,8.084
		c-4.341,0.779-8.428,2.361-11.683,4.964c-0.216-0.084-0.444-0.153-0.696-0.195c-1.948-0.323-3.726-0.625-5.506,0.455
		c-2.529,1.533-3.437,4.744-4.034,7.629c-0.14,0.083-0.285,0.157-0.423,0.243c-9.335,4.516-6.19,17.85-3.415,25.913
		c2.673,7.771,6.353,16.646,11.428,23.723c-0.194,0.111-0.377,0.232-0.597,0.318c-3.243,1.272-6.901,0.271-10.305,0.891
		c-2.427-1.284-5.427,1.931-3.075,3.843c0.138,0.109,0.284,0.207,0.424,0.314c0.317,0.553,0.822,0.969,1.473,1.089
		c4.159,2.851,8.839,4.61,13.241,7.14c4.973,2.853,9.792,5.527,15.63,5.854c1.411,0.079,2.435-1.199,2.5-2.5
		c0.254-5.055,0.313-10.104,0.327-15.162c1.892-5.822-0.721-10.996-4.045-16.063c-2.397-3.649-8.692-10.106-5.502-14.496
		c0.157-0.215,0.296-0.43,0.421-0.646c3.14,1.085,6.376,1.758,9.698,2.202c0.032,0.004,0.064,0.008,0.096,0.012
		c-1.089,9.313,0.185,19.074,1.765,28.11c1.102,6.3,3.76,14.896,9.637,18.271c0.734,0.481,1.528,0.801,2.358,1.002
		c0.989,0.289,2.05,0.446,3.193,0.441c1.039-0.004,1.976-0.12,2.833-0.314c0.063-0.006,0.121-0.013,0.185-0.019
		c5.13-0.487,10.163-0.838,15.081-2.492c6.551-2.204,12.604-5.171,19.45-6.514c2.78-0.546,5.399-1.144,8.069-2.117
		c1.492-0.546,4.092-2.907,5.496-1.782c1.209,0.965,3.088,1.028,3.926-0.508C165.546,178.999,166.211,174.494,164.411,168.335z"/>
</g>
<g id="Layer_7" display="none">
	<path display="inline" fill="#231F20" d="M181.561,138.534c-7.496-24.808-28.785-42.892-34.861-68.433
		c-0.024-0.101-0.061-0.19-0.098-0.275c0.023-4.904,2.24-9.609,2.451-14.58c0.124-2.928-1.712-4.651-4.302-5.488
		c-3.084-0.998-7.497-2.247-10.629-0.858c-1.685,0.748-2.933,1.947-3.96,3.349c-2.184-2.58-5.057-4.67-8.426-6.091
		c-9.627-4.061-19.777,3.011-29.45,0.996c-0.243-0.494-0.511-0.97-0.792-1.433c-0.846-2.571-3.574-4.47-6.245-4.47
		c-3.682,0-6.133,2.865-6.478,6.312c-1.128,1.387-2.155,2.852-2.789,4.372c-1.953,4.684-0.896,13.196,2.193,17.282
		c-2.624,6.254-8.46,10.718-13.573,14.97c-6.986,5.81-12.999,12.513-18.618,19.639c-5.476,6.945-10.739,14.183-15.593,21.574
		c-2.076,3.16-5.053,7.302-5.841,11.432c-0.357,0.904-0.523,1.891-0.497,2.873c-0.048,0.161-0.072,0.341-0.054,0.547
		c0.396,4.611,2.844,8.055,5.655,11.598c4.117,5.188,8.396,10.104,13.217,14.656c3.231,3.053,6.646,5.909,10.178,8.619
		c-0.163,0.823-0.362,1.635-0.578,2.438c-0.041,0.602-0.22,1.225-0.608,1.85c0.188,0.223,0.392,0.434,0.586,0.646
		c0.137,0.08,0.275,0.168,0.413,0.27c15.367,11.107,34.43,16.748,53.296,17.396c9.371,0.32,18.999-0.236,28.074-2.776
		c6.51-1.824,12.641-4.535,18.617-7.593c-0.521-1.893-0.826-3.797-0.725-5.666c-0.359-1.392-0.688-2.787-0.975-4.191
		c2.146-1.114,4.246-2.292,6.271-2.953c5.012-1.637,9.59-1.654,13.688-5.372c4.328-3.925,6.744-10.508,9.181-15.659
		C182.734,148.346,183.223,144.034,181.561,138.534z M92.234,119.164c-1.689,0.659-3.36,1.37-5,2.161
		c-4.369,2.106-8.061,3.885-13.03,3.795c-1.518-0.027-2.94-0.101-4.341-0.099c1.088-3.114,2.08-6.188,3.042-9.064
		c3.822-11.452,7.263-23.118,12.918-33.738c0.094,2.781-0.272,5.714,0.453,8.356c0.488,1.779,1.396,3.402,2.479,4.912
		c0.143,3.103,0.429,6.195,1.105,9.25c0.62,2.796,1.633,5.322,2.963,7.623C92.691,114.634,92.497,116.902,92.234,119.164z
		 M137.378,130.145c-3.661,0.438-10.315-2-14.511-5.451c0.101-2.104,0.184-4.215,0.244-6.32c1.218-1.238,2.33-2.6,3.313-4.143
		c2.717-4.265,2.794-9.318,4.387-13.887c1.955,0.982,3.391-0.485,4.43-2.921c1.531,10.604,4.979,20.827,8.167,31.08
		C141.466,129.268,139.484,129.895,137.378,130.145z"/>
</g>
<g id="Layer_4" display="none">
	<path display="inline" fill="#231F20" d="M156.311,74.826c0.103-1.021,0.178-2.045,0.189-3.076c0.014-1.19-1.368-1.744-2.25-1.333
		V69.75c0-1.937-2.965-1.932-3,0c-0.004,0.207-0.018,0.413-0.027,0.619c-0.742-0.228-1.654,0.06-1.918,0.982
		c-0.748,2.619-0.902,5.433-1.678,8.049c-0.186-0.308-0.377-0.612-0.582-0.907c-1.004-1.445-3.009-0.521-2.74,1.156
		c0.686,4.299,1.494,8.549,2.771,12.711c-0.023,0.213-0.057,0.426-0.076,0.64c-0.014,0.147-0.002,0.279,0.021,0.404
		c-1.308,4.61-3.809,8.864-6.972,12.465c-0.786,0.898-1.85,1.964-2.753,3.132c-3.122-4.094-5.896-8.442-8.755-12.758
		c-1.187-1.788-2.354-3.312-3.612-4.63c-0.434-0.358-0.861-0.72-1.307-1.064c-0.225-0.172-0.441-0.345-0.673-0.506
		c-0.37-0.147-0.464-0.243-0.349-0.2c-0.082-0.057-0.152-0.13-0.231-0.193c-1.663-0.749-2.795-2.457-1.919-4.664
		c2.238-5.646,7.711-6.41,13.029-6.484c0.207-0.108,0.399-0.265,0.562-0.495c0.715-1.034,0.229-2.566-0.053-3.664
		c-0.087-0.33-0.183-0.662-0.279-0.994c-0.201-1.186-0.461-2.403-0.276-3.707c0.057-0.4,0.019-0.768-0.086-1.112
		c0.063-0.243,0.116-0.496,0.149-0.78c0.047-0.406-0.226-0.9-0.563-1.167c-0.066-0.015-0.134-0.021-0.197-0.037
		c-1.299-0.325-2.539-0.729-3.687-1.453c-0.196-0.125-0.377-0.271-0.543-0.427c-0.044-0.087-0.075-0.179-0.116-0.268
		c-0.511-2.471-1.56-4.814-3.041-6.849c-0.677-1.297-1.438-2.54-2.271-3.666c-1.137-0.96-2.419-1.755-3.846-2.338
		c-2.594-1.062-5.424-1.032-8.207-1.31c-4.97,1.029-9.19,5.85-11.011,11.308c-1.152,2.703-1.806,6.037-1.011,8.44
		c0.002,0.181,0.003,0.359,0.008,0.542c0.102,0.423,0.189,0.851,0.275,1.278c1.797,3.912,4.518,7.444,4.456,11.904
		c-0.033,2.338-1.017,4.319-2.302,6.175c-1.203,2.018-2.723,3.887-4.295,5.688c-0.01,0.016-0.021,0.03-0.031,0.045
		c-0.532,1.283-1.005,2.6-1.419,3.943c-1.209,3.921-1.474,8.046-1.846,12.106c-0.543,5.932-2.409,10.648-6.47,15.013
		c-4.687,5.035-10.289,8.587-12.848,15.288c-1.883,4.932-2.364,10.112-0.328,14.814c-0.064-0.021-0.125-0.049-0.189-0.069
		c-1.045-0.333-1.964-0.258-2.706,0.104c-2.929,0.899-3.266,3.649-3.76,6.373c-1.034,5.687-8.531,6.658-11.933,10.58
		c-2.493,2.873-3.035,6.885-1.814,10.377c1.381,3.953,7.526,5.269,10.689,7.146c0.871,0.519,1.693,0.055,2.048-0.646
		c0.483-0.18,0.764-0.599,0.86-1.062c1.096-1.604,0.065-4.188-0.893-6.657c0.092-2.972,6.697-3.729,8.902-4.855
		c3.82-1.95,8.388,1.201,11.77,3.063c3.389,1.865,6.608,3.778,9.726,5.86c0.093,0.108,0.201,0.213,0.337,0.296
		c0.309,0.188,0.619,0.371,0.929,0.559c2.173,1.5,4.298,3.094,6.395,4.832c2.206,1.827,5.529,4.217,9.116,5.93
		c0.98,0.83,1.994,1.606,3.189,2.06c1.771,0.668,3.848,0.763,5.727,0.644c1.43-0.09,2.373-0.564,2.993-1.277
		c1.081-0.489,2.077-1.227,2.947-2.276c6.422-7.771-4.013-21.521-8.372-27.479c-3.656-4.994-7.932-9.469-12.175-13.955
		c-0.678-0.719-1.323-1.465-1.959-2.211c5.753-4.672,9.447-10.178,12.542-17.356c1.89-4.379,4.305-8.136,7.382-11.771
		c0.758-0.896,1.469-1.81,2.104-2.752c4.981,1.593,9.944,3.25,15.041,4.465c1.198,0.285,1.955-0.787,1.856-1.719
		c6.467-8.187,8.912-18.896,9.706-29.352c1.885-6.266,2.178-12.804,2.834-19.378C157.589,75.36,156.993,74.891,156.311,74.826z"/>
</g>
<g id="Layer_5" display="none">
	<path display="inline" fill="#231F20" d="M171.768,163.527c0.434-1.17,0.826-2.362,1.205-3.565
		c1.653-5.744,2.789-11.669,3.354-17.787c0.724-7.875,0.504-15.843-1.199-23.596c-0.839-3.817-2.986-7.091-4.441-10.574
		c-1.076-1.339-2.041-2.743-2.795-4.273c-2.785-5.661-1.68-11.259-1.558-17.24c-0.835-4.171-1.854-8.331-4.005-11.452
		c-2.072-2.338-4.725-4.019-8.029-4.181c-2.247-0.633-4.695-0.677-7.35-0.215c-6.563,1.146-11.063,5.067-13.43,10.15
		c-0.699,1.237-0.985,2.609-0.713,4.216c0.023,0.143,0.051,0.283,0.076,0.424c0.055,0.521,0.152,1.036,0.303,1.544
		c0.86,4.157,1.863,7.943-0.479,12.096c-0.007,0.012-0.012,0.024-0.018,0.036c-0.021,0.014-0.039,0.033-0.063,0.046
		c0.002,0.002,0.003,0.004,0.004,0.006c0.009,0.01,0.017,0.02,0.021,0.03c-0.17,0.36-0.168,0.704-0.073,1.012
		c0.055,0.235,0.163,0.469,0.36,0.687c0.293,0.324,0.619,0.646,0.959,0.97c0.383,0.113,0.752,0.285,1.103,0.503
		c0.203,0.037,0.401,0.092,0.599,0.17c0.286,0.115,0.568,0.231,0.853,0.35c0.01,0.075,0.019,0.155,0.026,0.232
		c0.352,0.196,0.688,0.423,0.996,0.704c1.32,1.205,2.443,2.589,3.396,4.087c-0.709,0.328-1.416,0.665-2.12,1.007
		c-2.871,1.395-6.464,2.781-9.344,4.801c-5.438,1.938-10.959,3.971-16.049,6.52c-2.418-2.668-4.984-5.186-7.726-7.459
		c-5.023-4.172-12.415-9.062-19.232-6.768c-3.254,1.096-5.344,4.016-7.092,7.148c-1.382,1.923-2.472,4.101-3.41,6.092
		c-0.16,0.339-0.312,0.68-0.468,1.02c-1.396-0.229-2.787-0.359-4.149-0.084c-1.006,0.205-2.196,0.649-2.677,1.668
		c-1.06,2.241-1.24,3.866-3.685,5.313c-2.391,1.411-4.618,5.031-3.708,7.895c0.785,2.465,2.575,4.199,4.33,5.987
		c-1.185,2.269-2.314,4.57-3.388,6.935c-1.665,3.662-3.156,7.398-4.791,11.074c-0.531,1.193-1.157,2.102-1.867,2.795
		c-0.581,0.68-1.167,1.209-1.86,1.617c-3.402,3.256-8.546,1.604-12.332-0.88c-2.062-1.354-4.911-5.021-7.388-5.094
		c-1.903-0.056-3.532,0.208-5.015,0.741c0.395,0.767,0.838,1.511,1.304,2.242c5.242,4.469,9.553,10.383,14.653,14.982
		c3.268,2.947,6.55,5.734,10.032,8.225c0.668-0.254,1.268-0.563,1.518-1.01c1.101-1.951,1.924-4.009,2.843-6.049
		c1.477-3.279,3.678-6.193,6.272-8.684c3.415-3.273,7.217-6.123,11.231-8.637c3.758-3.242,7.152-6.479,9.556-10.873
		c1.896-3.472,3.146-7.063,4.868-10.515c8.242,9.526,11.175,23.291,17.761,33.938c3.397,5.492,7.362,12.367,13.396,15.244
		c1.592,0.758,3.301,1.144,5.063,1.334c7.313,2.662,15.295,3.655,22.694,0.728C161.275,184.736,167.773,174.371,171.768,163.527z
		 M128.691,138.79c-0.313,0.776-0.604,1.562-0.883,2.347c-0.522-0.927-1.061-1.845-1.601-2.756c1.065-0.346,2.123-0.727,3.153-1.17
		C129.141,137.736,128.907,138.259,128.691,138.79z"/>
</g>
<g id="Layer_1_1_">
	<circle fill="none" stroke="#000000" stroke-width="11.31" stroke-miterlimit="10" cx="108.119" cy="108.224" r="102.223"/>
</g>
</svg>
