<?xml version="1.0" encoding="utf-8"?>
<!-- Generator: Adobe Illustrator 16.0.0, SVG Export Plug-In . SVG Version: 6.00 Build 0)  -->
<!DOCTYPE svg PUBLIC "-//W3C//DTD SVG 1.1//EN" "http://www.w3.org/Graphics/SVG/1.1/DTD/svg11.dtd">
<svg version="1.1" id="Layer_1" xmlns="http://www.w3.org/2000/svg" xmlns:xlink="http://www.w3.org/1999/xlink" x="0px" y="0px"
	 width="216px" height="216px" viewBox="0 0 216 216" enable-background="new 0 0 216 216" xml:space="preserve">
<g id="Layer_1_1_" display="none">
	
		<circle display="inline" fill="#FFFFFF" stroke="#231F20" stroke-width="11.31" stroke-miterlimit="10" cx="108.119" cy="108.224" r="102.223"/>
</g>
<g id="Layer_2">
	<path fill="#231F20" d="M138.262,129.834c-9.328-4.906-18.123-10.67-27.895-14.679c-0.606-3.306-1.268-6.604-1.981-9.898
		c5.601-3.146,10.798-7.967,14.382-12.496c3.055-3.86,6.922-9.613,4.123-14.687c-3.078-5.581-10.437-8.793-16.558-9.248
		c-1.903-0.141-2.663,1.548-2.314,3.002c-0.007,0-0.012-0.002-0.019-0.002c-13.166-0.439-19.216,9.418-20.926,21.243
		c-1.365,9.443,3.806,17.558,14.024,15.146c0.881-0.208,1.764-0.486,2.646-0.807c0.589,2.758,1.139,5.52,1.649,8.283
		c-8.682,6.667-14.512,16.467-23.989,22.142c-2.763,1.654-0.25,5.979,2.523,4.317c8.976-5.374,14.581-14.295,22.433-20.893
		c2.507,15.42,3.542,30.939,1.845,46.667c-3.784,4.551-6.954,9.446-9.841,14.606c-2.791,4.987-5.236,13.526-10.293,16.636
		c-2.741,1.686-0.231,6.01,2.523,4.316c4.547-2.795,6.473-7.771,8.844-12.338c3.588-6.907,7.33-13.715,12.33-19.719
		c0.092-0.11,0.17-0.224,0.238-0.338c1.206,11.748,8.999,22.311,14.835,32.164c1.642,2.771,5.964,0.258,4.316-2.523
		c-5.968-10.075-14.621-21.139-14.325-33.404c0.049-2.012-1.875-2.766-3.352-2.27c1.295-14.832,0.235-29.519-2.112-44.1
		c8.434,3.789,16.187,8.89,24.368,13.194C138.589,135.651,141.116,131.336,138.262,129.834z M103.021,102.175
		c-0.477,0.218-0.952,0.443-1.437,0.636c-7.66,3.049-10.518-2.675-9.509-9.651C93.397,84.015,97.78,76.486,108,76.826
		c1.863,0.062,2.641-1.579,2.35-2.999c4.426,0.335,13.234,3.691,12.299,9.32c-0.547,3.292-3.402,6.252-5.646,8.61
		c-3.159,3.318-6.865,6.475-10.92,8.838C104.905,100.339,103.495,100.973,103.021,102.175z"/>
</g>
<circle fill="#FFFFFF" stroke="#000000" stroke-width="3" stroke-miterlimit="10" cx="80.206" cy="65" r="7.771"/>
<circle fill="#FFFFFF" stroke="#000000" stroke-width="3" stroke-miterlimit="10" cx="80.206" cy="25.25" r="17.75"/>
</svg>
