<?xml version="1.0" encoding="utf-8"?>
<!-- Generator: Adobe Illustrator 16.0.0, SVG Export Plug-In . SVG Version: 6.00 Build 0)  -->
<!DOCTYPE svg PUBLIC "-//W3C//DTD SVG 1.1//EN" "http://www.w3.org/Graphics/SVG/1.1/DTD/svg11.dtd">
<svg version="1.1" xmlns="http://www.w3.org/2000/svg" xmlns:xlink="http://www.w3.org/1999/xlink" x="0px" y="0px" width="216px"
	 height="216px" viewBox="0 0 216 216" enable-background="new 0 0 216 216" xml:space="preserve">
<g id="Layer_1" display="none">
	
		<circle display="inline" fill="#FFFFFF" stroke="#231F20" stroke-width="11.31" stroke-miterlimit="10" cx="108.119" cy="108.224" r="102.223"/>
</g>
<g id="Layer_2">
	<path fill="#FFFFFF" stroke="#231F20" stroke-width="11.31" stroke-miterlimit="10" d="M18.489,110.912
		c0,0-21.073-31.997,9.365-32.951c0,0-15.922-33.429,16.859-32.473c0,0,0.937-28.175,24.351-19.58c0,0,11.708-29.608,40.272-10.506
		c0,0,27.161-17.192,37.933,8.596c0,0,27.629-5.73,22.478,23.877c0,0,35.59,0,25.755,31.518c0,0,20.137,16.714,4.216,39.159
		c0,0,13.111,31.517-21.541,42.501c0,0,2.842,29.515-22.697,31.948c0,0-21.79,24.402-43.8,7.688c0,0-34.654,16.715-42.615-12.893
		c0,0-32.312,10.982-25.287-16.715c0,0-35.122,0.955-15.453-29.608C28.324,141.474-7.735,130.013,18.489,110.912z"/>
</g>
</svg>
